<svg width="185" height="59" viewBox="0 0 185 59" fill="none" xmlns="http://www.w3.org/2000/svg">
<g clip-path="url(#clip0_36_14419)">
<path d="M170.268 -5.23906e-05H14.7406C14.1736 -5.23906e-05 13.6135 -5.23905e-05 13.0481 0.00289761C12.5748 0.00584761 12.1053 0.0144174 11.6274 0.0216301C10.5893 0.0332853 9.55364 0.12042 8.52941 0.282277C7.50661 0.447658 6.51586 0.759448 5.59066 1.2071C4.66658 1.65854 3.82223 2.24514 3.08823 2.94563C2.35038 3.64414 1.73532 4.45152 1.26671 5.33673C0.796806 6.22018 0.470973 7.16688 0.300464 8.14413C0.128334 9.12015 0.03571 10.1074 0.0234218 11.0971C0.00907499 11.5493 0.00755991 12.0031 0 12.4553V46.5489C0.00755991 47.0069 0.00907499 47.4506 0.0234218 47.9087C0.0357137 48.8983 0.128338 49.8855 0.300464 50.8615C0.470502 51.8393 0.796354 52.7865 1.26671 53.6703C1.73511 54.5527 2.35025 55.3568 3.08823 56.0514C3.81945 56.755 4.66435 57.342 5.59066 57.79C6.51585 58.2389 7.5065 58.5525 8.52941 58.7204C9.55381 58.881 10.5894 58.9682 11.6274 58.9812C12.1053 58.9912 12.5748 58.997 13.0481 58.997C13.6135 59 14.1737 58.9999 14.7406 58.9999H170.268C170.823 58.9999 171.388 59 171.944 58.997C172.415 58.997 172.898 58.9912 173.369 58.9812C174.405 58.9689 175.439 58.8817 176.461 58.7204C177.487 58.5513 178.481 58.2378 179.411 57.79C180.336 57.3418 181.181 56.7548 181.911 56.0514C182.647 55.3541 183.264 54.5505 183.738 53.6703C184.205 52.7859 184.527 51.8387 184.695 50.8615C184.867 49.8854 184.963 48.8984 184.982 47.9087C184.988 47.4506 184.988 47.0069 184.988 46.5489C185 46.013 185 45.4801 185 44.9355V14.0657C185 13.5256 185 12.9897 184.988 12.4553C184.988 12.0031 184.988 11.5493 184.982 11.097C184.963 10.1073 184.867 9.12022 184.695 8.14407C184.527 7.16739 184.204 6.22077 183.738 5.33667C182.784 3.56236 181.27 2.11809 179.411 1.20697C178.481 0.760409 177.487 0.448702 176.461 0.282145C175.439 0.119574 174.405 0.0324091 173.369 0.0214236C172.898 0.0142256 172.415 0.00558211 171.944 0.00270586C171.388 -0.000244141 170.823 -0.000244141 170.268 -0.000244141V-5.23906e-05Z" fill="#A6A6A6"/>
<path d="M13.0557 57.7093C12.5846 57.7093 12.125 57.7035 11.6576 57.6935C10.6895 57.6815 9.72364 57.601 8.76796 57.4529C7.87683 57.3065 7.01357 57.0341 6.20664 56.6448C5.40712 56.2586 4.67789 55.7523 4.04689 55.1453C3.40676 54.5454 2.87382 53.8496 2.46919 53.0854C2.0601 52.3164 1.77699 51.492 1.62971 50.6411C1.47067 49.7267 1.38462 48.8022 1.3723 47.8755C1.3625 47.5644 1.34967 46.5286 1.34967 46.5286V12.4553C1.34967 12.4553 1.36334 11.4355 1.37238 11.1359C1.38417 10.2106 1.46972 9.28747 1.62829 8.37455C1.77584 7.5213 2.05917 6.69456 2.46848 5.92296C2.87162 5.15937 3.4016 4.46305 4.03788 3.86098C4.67344 3.25319 5.405 2.74429 6.20589 2.35284C7.01096 1.96474 7.87259 1.69428 8.76191 1.55053C9.72073 1.40091 10.69 1.32002 11.6614 1.30854L13.0564 1.29053H171.936L173.348 1.30926C174.31 1.32017 175.271 1.40034 176.221 1.54908C177.119 1.69464 177.99 1.96699 178.804 2.35716C180.408 3.14606 181.714 4.39417 182.538 5.92656C182.94 6.69283 183.219 7.51282 183.365 8.35871C183.525 9.27911 183.615 10.2095 183.634 11.1423C183.638 11.5601 183.638 12.0088 183.638 12.4553C183.65 13.0084 183.65 13.5349 183.65 14.0657V44.9355C183.65 45.4713 183.65 45.9942 183.638 46.5214C183.638 47.0011 183.638 47.4405 183.632 47.8927C183.614 48.8089 183.526 49.7227 183.368 50.6266C183.224 51.4837 182.942 52.3145 182.533 53.0899C182.126 53.8457 181.596 54.5355 180.963 55.1338C180.331 55.7441 179.601 56.2534 178.799 56.642C177.987 57.0343 177.118 57.3077 176.221 57.4529C175.265 57.6018 174.299 57.6823 173.331 57.6935C172.878 57.7035 172.404 57.7093 171.944 57.7093L170.268 57.7122L13.0557 57.7093Z" fill="black"/>
<path d="M38.2926 29.9429C38.3092 28.7118 38.6519 27.5047 39.2889 26.4339C39.9259 25.3631 40.8364 24.4635 41.9358 23.8186C41.2374 22.867 40.3161 22.0839 39.245 21.5314C38.1739 20.979 36.9825 20.6724 35.7655 20.6361C33.1694 20.3761 30.6526 22.1182 29.3296 22.1182C27.9811 22.1182 25.9443 20.6619 23.7509 20.7049C22.3322 20.7487 20.9496 21.1423 19.7377 21.8474C18.5258 22.5526 17.5261 23.5452 16.8358 24.7285C13.8459 29.6675 16.0761 36.926 18.9402 40.9183C20.3732 42.8732 22.0479 45.0568 24.2393 44.9794C26.3837 44.8945 27.1846 43.6748 29.7731 43.6748C32.3375 43.6748 33.0889 44.9794 35.3247 44.9301C37.6257 44.8945 39.0755 42.9666 40.4582 40.9932C41.4878 39.6002 42.2801 38.0607 42.8057 36.4317C41.4688 35.8923 40.328 34.9893 39.5255 33.8354C38.7229 32.6815 38.2941 31.3278 38.2926 29.9429Z" fill="white"/>
<path d="M34.0695 18.0115C35.3241 16.5745 35.9422 14.7275 35.7925 12.8628C33.8757 13.0549 32.1052 13.9289 30.8336 15.3107C30.2119 15.9858 29.7357 16.7711 29.4323 17.6219C29.1289 18.4726 29.0043 19.372 29.0654 20.2688C30.0242 20.2782 30.9726 20.0799 31.8394 19.6889C32.7062 19.2979 33.4687 18.7244 34.0695 18.0115Z" fill="white"/>
<path d="M65.3991 40.0308H58.0813L56.3239 44.9816H53.2244L60.1557 26.665H63.376L70.3073 44.9816H67.1549L65.3991 40.0308ZM58.8392 37.7463H64.6397L61.7802 29.7116H61.7002L58.8392 37.7463Z" fill="white"/>
<path d="M85.2766 38.3049C85.2766 42.4548 82.9485 45.121 79.4353 45.121C78.5454 45.1654 77.6603 44.9698 76.8814 44.5566C76.1026 44.1434 75.4614 43.5293 75.0314 42.7846H74.9649V49.3991H72.0918V31.6271H74.8728V33.8482H74.9257C75.3755 33.1071 76.0275 32.4961 76.8123 32.0804C77.5971 31.6647 78.4853 31.4597 79.3825 31.4873C82.9349 31.4873 85.2766 34.1665 85.2766 38.3049ZM82.3235 38.3049C82.3235 35.6012 80.859 33.8237 78.6246 33.8237C76.4294 33.8237 74.9528 35.6387 74.9528 38.3049C74.9528 40.9956 76.4294 42.7976 78.6246 42.7976C80.859 42.7976 82.3235 41.0331 82.3235 38.3049Z" fill="white"/>
<path d="M100.682 38.3049C100.682 42.4548 98.3541 45.121 94.8409 45.121C93.9509 45.1654 93.0659 44.9698 92.287 44.5566C91.5081 44.1434 90.867 43.5293 90.4369 42.7846H90.3704V49.399H87.4974V31.627H90.2783V33.8482H90.3312C90.781 33.107 91.433 32.4961 92.2178 32.0804C93.0026 31.6647 93.8908 31.4597 94.788 31.4873C98.3405 31.4873 100.682 34.1665 100.682 38.3049ZM97.7291 38.3049C97.7291 35.6012 96.2646 33.8237 94.0301 33.8237C91.835 33.8237 90.3584 35.6386 90.3584 38.3049C90.3584 40.9956 91.835 42.7976 94.0301 42.7976C96.2646 42.7976 97.7291 41.0331 97.7291 38.3049H97.7291Z" fill="white"/>
<path d="M110.864 39.8781C111.077 41.6945 112.926 42.8871 115.454 42.8871C117.875 42.8871 119.618 41.6945 119.618 40.0567C119.618 38.635 118.567 37.7837 116.079 37.2003L113.591 36.6285C110.065 35.816 108.429 34.2431 108.429 31.6907C108.429 28.5303 111.315 26.3596 115.414 26.3596C119.471 26.3596 122.252 28.5303 122.346 31.6907H119.445C119.272 29.8627 117.688 28.7594 115.374 28.7594C113.059 28.7594 111.475 29.8757 111.475 31.5005C111.475 32.7955 112.487 33.5575 114.961 34.1408L117.077 34.6363C121.016 35.525 122.652 37.0346 122.652 39.7138C122.652 43.1406 119.791 45.2868 115.241 45.2868C110.983 45.2868 108.109 43.191 107.923 39.878L110.864 39.8781Z" fill="white"/>
<path d="M128.853 28.468V31.6283H131.514V33.7991H128.853V41.1611C128.853 42.3048 129.386 42.8377 130.556 42.8377C130.872 42.8325 131.187 42.8113 131.501 42.7743V44.9321C130.975 45.0259 130.44 45.0683 129.905 45.0588C127.071 45.0588 125.966 44.0433 125.966 41.4534V33.7991H123.931V31.6283H125.966V28.468H128.853Z" fill="white"/>
<path d="M133.056 38.3061C133.056 34.1044 135.65 31.4641 139.694 31.4641C143.753 31.4641 146.334 34.1044 146.334 38.3061C146.334 42.5194 143.766 45.1482 139.694 45.1482C135.624 45.1482 133.056 42.5194 133.056 38.3061ZM143.407 38.3061C143.407 35.4239 142.022 33.7227 139.694 33.7227C137.366 33.7227 135.983 35.4368 135.983 38.3061C135.983 41.2 137.366 42.8882 139.694 42.8882C142.022 42.8882 143.407 41.2 143.407 38.3061H143.407Z" fill="white"/>
<path d="M148.703 31.6269H151.443V33.8999H151.51C151.695 33.19 152.131 32.5626 152.744 32.1233C153.357 31.6839 154.11 31.4593 154.877 31.4872C155.208 31.4861 155.538 31.5204 155.861 31.5895V34.1534C155.443 34.0316 155.007 33.9756 154.57 33.9878C154.153 33.9716 153.737 34.0418 153.35 34.1936C152.964 34.3454 152.617 34.5751 152.332 34.867C152.048 35.1588 151.833 35.506 151.703 35.8846C151.572 36.2632 151.529 36.6642 151.576 37.0602V44.9811H148.703L148.703 31.6269Z" fill="white"/>
<path d="M169.108 41.0603C168.721 43.4845 166.247 45.1482 163.081 45.1482C159.009 45.1482 156.481 42.5453 156.481 38.3695C156.481 34.1808 159.022 31.4641 162.96 31.4641C166.832 31.4641 169.268 34.0021 169.268 38.0512V38.9904H159.382V39.156C159.336 39.6475 159.401 40.1426 159.571 40.6084C159.741 41.0743 160.013 41.5003 160.37 41.858C160.726 42.2158 161.158 42.4972 161.636 42.6835C162.115 42.8698 162.63 42.9567 163.147 42.9386C163.826 42.9993 164.507 42.8492 165.09 42.5108C165.672 42.1724 166.124 41.6636 166.379 41.0602L169.108 41.0603ZM159.395 37.0746H166.393C166.419 36.6327 166.349 36.1905 166.187 35.7757C166.025 35.3609 165.775 34.9825 165.453 34.6642C165.13 34.346 164.742 34.0947 164.313 33.9263C163.884 33.7578 163.424 33.6757 162.96 33.6853C162.492 33.6826 162.028 33.7684 161.595 33.9376C161.162 34.1068 160.769 34.3562 160.437 34.6713C160.106 34.9864 159.843 35.361 159.664 35.7735C159.485 36.186 159.394 36.6282 159.395 37.0746V37.0746Z" fill="white"/>
<path d="M58.4791 12.8786C59.0814 12.8374 59.6859 12.9242 60.2488 13.1328C60.8117 13.3414 61.3191 13.6667 61.7343 14.085C62.1495 14.5033 62.4623 15.0044 62.65 15.552C62.8376 16.0997 62.8956 16.6802 62.8197 17.2518C62.8197 20.0635 61.2269 21.6797 58.4791 21.6797H55.1471V12.8786H58.4791ZM56.5798 20.4351H58.3191C58.7495 20.4596 59.1802 20.3923 59.5799 20.238C59.9796 20.0837 60.3382 19.8463 60.6296 19.5431C60.921 19.2399 61.1379 18.8785 61.2645 18.4852C61.391 18.0919 61.4241 17.6767 61.3612 17.2697C61.4195 16.8643 61.3831 16.4517 61.2546 16.0613C61.1261 15.6709 60.9087 15.3125 60.618 15.0117C60.3272 14.7109 59.9703 14.4752 59.5729 14.3214C59.1754 14.1677 58.7473 14.0997 58.3191 14.1224H56.5798V20.4351Z" fill="white"/>
<path d="M64.4381 18.357C64.3944 17.9206 64.4467 17.4802 64.5918 17.0641C64.7369 16.6481 64.9715 16.2655 65.2806 15.9411C65.5897 15.6166 65.9665 15.3573 66.3868 15.1799C66.807 15.0025 67.2615 14.9109 67.7211 14.9109C68.1807 14.9109 68.6352 15.0025 69.0555 15.1799C69.4758 15.3573 69.8525 15.6166 70.1616 15.9411C70.4707 16.2655 70.7054 16.6481 70.8504 17.0641C70.9955 17.4802 71.0479 17.9206 71.0041 18.357C71.0487 18.794 70.997 19.235 70.8523 19.6517C70.7076 20.0684 70.4731 20.4517 70.1639 20.7768C69.8547 21.1019 69.4777 21.3617 69.057 21.5395C68.6363 21.7173 68.1812 21.8091 67.7211 21.8091C67.261 21.8091 66.806 21.7173 66.3853 21.5395C65.9645 21.3617 65.5875 21.1019 65.2783 20.7768C64.9691 20.4517 64.7346 20.0684 64.5899 19.6517C64.4453 19.235 64.3935 18.794 64.4381 18.357ZM69.5909 18.357C69.5909 16.9173 68.913 16.0754 67.7234 16.0754C66.5292 16.0754 65.8574 16.9173 65.8574 18.3571C65.8574 19.8083 66.5292 20.6437 67.7234 20.6437C68.9131 20.6437 69.591 19.8025 69.591 18.357H69.5909Z" fill="white"/>
<path d="M79.732 21.6797H78.3068L76.868 16.788H76.7593L75.3265 21.6797H73.9149L71.996 15.0378H73.3895L74.6366 20.1059H74.7392L76.1705 15.0378H77.4885L78.9198 20.1059H79.0285L80.2695 15.0378H81.6434L79.732 21.6797Z" fill="white"/>
<path d="M83.2573 15.0373H84.5798V16.0924H84.6825C84.8567 15.7135 85.1504 15.3958 85.5228 15.1837C85.8952 14.9716 86.3277 14.8756 86.7599 14.9091C87.0987 14.8848 87.4388 14.9336 87.7551 15.0517C88.0714 15.1698 88.3558 15.3544 88.5872 15.5916C88.8186 15.8289 88.9911 16.1127 89.0919 16.4222C89.1927 16.7317 89.2192 17.0589 89.1695 17.3795V21.6791H87.7956V17.7086C87.7956 16.6413 87.3095 16.1105 86.2934 16.1105C86.0634 16.1002 85.8339 16.1376 85.6204 16.2199C85.407 16.3023 85.2148 16.4277 85.0569 16.5876C84.899 16.7474 84.7792 16.938 84.7057 17.1461C84.6322 17.3543 84.6068 17.5752 84.6312 17.7936V21.6792H83.2573L83.2573 15.0373Z" fill="white"/>
<path d="M91.3586 12.4451H92.7325V21.6797H91.3586V12.4451Z" fill="white"/>
<path d="M94.6424 18.3547C94.5987 17.9182 94.651 17.4778 94.7961 17.0617C94.9412 16.6457 95.1759 16.2631 95.485 15.9386C95.7942 15.6142 96.171 15.3549 96.5913 15.1775C97.0116 15.0001 97.4661 14.9084 97.9257 14.9084C98.3853 14.9084 98.8399 15.0001 99.2602 15.1775C99.6805 15.3549 100.057 15.6142 100.366 15.9386C100.676 16.2631 100.91 16.6457 101.055 17.0617C101.2 17.4778 101.253 17.9182 101.209 18.3547C101.254 18.7917 101.202 19.2327 101.057 19.6494C100.912 20.0661 100.678 20.4493 100.369 20.7744C100.059 21.0995 99.6823 21.3593 99.2616 21.5371C98.8409 21.7149 98.3859 21.8067 97.9257 21.8067C97.4656 21.8067 97.0105 21.7149 96.5898 21.5371C96.1691 21.3593 95.792 21.0995 95.4828 20.7744C95.1736 20.4493 94.9391 20.0661 94.7943 19.6494C94.6496 19.2327 94.5978 18.7917 94.6424 18.3547ZM99.7952 18.3547C99.7952 16.915 99.1173 16.0731 97.9276 16.0731C96.7334 16.0731 96.0616 16.915 96.0616 18.3547C96.0616 19.806 96.7334 20.6414 97.9276 20.6414C99.1173 20.6414 99.7952 19.8002 99.7952 18.3547H99.7952Z" fill="white"/>
<path d="M102.655 19.8026C102.655 18.607 103.588 17.9178 105.245 17.8198L107.13 17.7161V17.1428C107.13 16.4413 106.644 16.0452 105.705 16.0452C104.938 16.0452 104.407 16.3139 104.254 16.7834H102.924C103.065 15.6426 104.189 14.9109 105.769 14.9109C107.514 14.9109 108.498 15.7398 108.498 17.1428V21.6809H107.176V20.7475H107.067C106.846 21.0823 106.537 21.3553 106.169 21.5385C105.802 21.7217 105.39 21.8086 104.976 21.7903C104.684 21.8193 104.388 21.7896 104.109 21.703C103.829 21.6164 103.572 21.4749 103.353 21.2877C103.135 21.1004 102.96 20.8715 102.84 20.6157C102.719 20.3599 102.657 20.0829 102.655 19.8026ZM107.13 19.235V18.6798L105.43 18.7835C104.472 18.8447 104.037 19.1558 104.037 19.7414C104.037 20.3391 104.58 20.687 105.328 20.687C105.547 20.7081 105.768 20.687 105.978 20.625C106.188 20.5629 106.384 20.4611 106.552 20.3256C106.72 20.1901 106.858 20.0238 106.957 19.8364C107.057 19.6491 107.116 19.4446 107.13 19.235Z" fill="white"/>
<path d="M110.304 18.3559C110.304 16.2572 111.435 14.9277 113.194 14.9277C113.629 14.9085 114.06 15.008 114.438 15.2143C114.817 15.4207 115.125 15.7254 115.328 16.0929H115.431V12.4451H116.805V21.6797H115.488V20.6303H115.38C115.161 20.9953 114.841 21.2963 114.456 21.5006C114.071 21.7048 113.634 21.8046 113.194 21.7891C111.423 21.7892 110.304 20.4596 110.304 18.3559ZM111.723 18.3559C111.723 19.7646 112.419 20.6123 113.583 20.6123C114.741 20.6123 115.457 19.7524 115.457 18.3617C115.457 16.9774 114.734 16.1052 113.583 16.1052C112.427 16.1052 111.723 16.9587 111.723 18.3559H111.723Z" fill="white"/>
<path d="M122.489 18.357C122.445 17.9206 122.498 17.4802 122.643 17.0641C122.788 16.6481 123.023 16.2655 123.332 15.9411C123.641 15.6166 124.017 15.3573 124.438 15.1799C124.858 15.0025 125.313 14.9109 125.772 14.9109C126.232 14.9109 126.686 15.0025 127.106 15.1799C127.527 15.3573 127.904 15.6166 128.213 15.9411C128.522 16.2655 128.756 16.6481 128.901 17.0641C129.047 17.4802 129.099 17.9206 129.055 18.357C129.1 18.794 129.048 19.235 128.903 19.6517C128.759 20.0684 128.524 20.4517 128.215 20.7768C127.906 21.1019 127.529 21.3617 127.108 21.5395C126.687 21.7173 126.232 21.8091 125.772 21.8091C125.312 21.8091 124.857 21.7173 124.436 21.5395C124.016 21.3617 123.639 21.1019 123.329 20.7768C123.02 20.4517 122.786 20.0684 122.641 19.6517C122.496 19.235 122.445 18.794 122.489 18.357ZM127.642 18.357C127.642 16.9173 126.964 16.0754 125.774 16.0754C124.58 16.0754 123.908 16.9173 123.908 18.3571C123.908 19.8083 124.58 20.6437 125.774 20.6437C126.964 20.6437 127.642 19.8025 127.642 18.357Z" fill="white"/>
<path d="M130.899 15.0373H132.221V16.0924H132.324C132.498 15.7135 132.792 15.3958 133.164 15.1837C133.536 14.9716 133.969 14.8756 134.401 14.9091C134.74 14.8848 135.08 14.9336 135.396 15.0517C135.713 15.1698 135.997 15.3544 136.228 15.5916C136.46 15.8289 136.632 16.1127 136.733 16.4222C136.834 16.7317 136.86 17.0589 136.811 17.3795V21.6791H135.437V17.7086C135.437 16.6413 134.951 16.1105 133.935 16.1105C133.705 16.1002 133.475 16.1376 133.262 16.2199C133.048 16.3023 132.856 16.4277 132.698 16.5876C132.54 16.7474 132.42 16.938 132.347 17.1461C132.274 17.3543 132.248 17.5752 132.272 17.7936V21.6792H130.899V15.0373Z" fill="white"/>
<path d="M144.574 13.3843V15.0681H146.082V16.1722H144.574V19.5875C144.574 20.2832 144.874 20.5879 145.558 20.5879C145.733 20.5873 145.908 20.5772 146.082 20.5576V21.6495C145.835 21.6916 145.585 21.714 145.335 21.7164C143.807 21.7164 143.199 21.2036 143.199 19.9231V16.1722H142.093V15.0681H143.199V13.3843H144.574Z" fill="white"/>
<path d="M147.959 12.4451H149.321V16.1052H149.429C149.612 15.7227 149.914 15.4032 150.294 15.1903C150.673 14.9774 151.113 14.8814 151.552 14.9154C151.889 14.8979 152.226 14.9516 152.539 15.0726C152.851 15.1936 153.132 15.379 153.361 15.6155C153.59 15.852 153.762 16.1338 153.863 16.4408C153.965 16.7478 153.994 17.0724 153.949 17.3915V21.6797H152.574V17.7149C152.574 16.654 152.056 16.1167 151.086 16.1167C150.849 16.0982 150.612 16.1292 150.39 16.2075C150.167 16.2857 149.966 16.4094 149.799 16.5697C149.632 16.7301 149.504 16.9234 149.423 17.136C149.343 17.3486 149.312 17.5754 149.333 17.8006V21.6796H147.959L147.959 12.4451Z" fill="white"/>
<path d="M161.96 19.8852C161.774 20.4923 161.369 21.0173 160.818 21.3686C160.266 21.7199 159.603 21.875 158.944 21.8068C158.485 21.8183 158.029 21.7345 157.608 21.5612C157.187 21.3878 156.81 21.1291 156.504 20.8029C156.198 20.4767 155.97 20.0909 155.836 19.6723C155.702 19.2536 155.665 18.8122 155.728 18.3786C155.667 17.9436 155.705 17.5012 155.838 17.0813C155.972 16.6614 156.199 16.2738 156.503 15.9448C156.807 15.6158 157.182 15.353 157.602 15.1742C158.022 14.9954 158.478 14.9048 158.938 14.9086C160.875 14.9086 162.043 16.1712 162.043 18.2568V18.7142H157.128V18.7876C157.106 19.0314 157.138 19.2767 157.222 19.5079C157.306 19.7391 157.439 19.9511 157.613 20.1303C157.788 20.3094 158 20.4518 158.236 20.5482C158.471 20.6447 158.725 20.6931 158.982 20.6904C159.31 20.728 159.643 20.6716 159.938 20.5282C160.233 20.3848 160.477 20.161 160.638 19.8852L161.96 19.8852ZM157.128 17.7448H160.644C160.661 17.5218 160.629 17.2979 160.551 17.0874C160.472 16.8769 160.348 16.6845 160.186 16.5224C160.025 16.3604 159.83 16.2324 159.614 16.1465C159.397 16.0607 159.164 16.0191 158.93 16.0242C158.693 16.0213 158.457 16.0639 158.237 16.1494C158.017 16.2348 157.817 16.3615 157.649 16.5218C157.481 16.6822 157.348 16.873 157.259 17.083C157.169 17.2931 157.125 17.5181 157.128 17.7448H157.128Z" fill="white"/>
</g>
<defs>
<clipPath id="clip0_36_14419">
<rect width="185" height="59" fill="white"/>
</clipPath>
</defs>
</svg>
