<svg width="1402" height="1192" viewBox="0 0 1402 1192" fill="none" xmlns="http://www.w3.org/2000/svg"><path opacity="0.1" d="M561 631H631M561 631V701M561 631V561M561 631H491M631 631V701M631 631V561M631 631H701M631 701H561M631 701V771M631 701H701M561 701V771M561 701H491M631 771H561M631 771V841M631 771H701M561 771V841M561 771H491M631 1H561M631 1V71M631 1H701M561 1V71M561 1H491M631 841H561M631 841V911M631 841H701M561 841V911M561 841H491M631 71H561M631 71V141M631 71H701M561 71V141M561 71H491M631 911H561M631 911V981M631 911H701M561 911V981M561 911H491M631 141H561M631 141V211M631 141H701M561 141V211M561 141H491M631 981H561M631 981V1051M631 981H701M561 981V1051M561 981H491M631 211H561M631 211V281M631 211H701M561 211V281M561 211H491M631 1051H561M631 1051V1121M631 1051H701M561 1051V1121M561 1051H491M631 281H561M631 281V351M631 281H701M561 281V351M561 281H491M631 1121H561M631 1121V1191M631 1121H701M561 1121V1191M561 1121H491M631 351H561M631 351V421M631 351H701M561 351V421M561 351H491M631 1191H561M631 1191H701M561 1191H491M631 421H561M631 421V491M631 421H701M561 421V491M561 421H491M631 491H561M631 491V561M631 491H701M561 491V561M561 491H491M631 561H561M631 561H701M561 561H491M701 631V701M701 631V561M701 631H771M701 701V771M701 701H771M701 771V841M701 771H771M701 1V71M701 1H771M701 841V911M701 841H771M701 71V141M701 71H771M701 911V981M701 911H771M701 141V211M701 141H771M701 981V1051M701 981H771M701 211V281M701 211H771M701 1051V1121M701 1051H771M701 281V351M701 281H771M701 1121V1191M701 1121H771M701 351V421M701 351H771M701 1191H771M701 421V491M701 421H771M701 491V561M701 491H771M701 561H771M771 631V701M771 631V561M771 631H841M771 701V771M771 701H841M771 771V841M771 771H841M771 1V71M771 1H841M771 841V911M771 841H841M771 71V141M771 71H841M771 911V981M771 911H841M771 141V211M771 141H841M771 981V1051M771 981H841M771 211V281M771 211H841M771 1051V1121M771 1051H841M771 281V351M771 281H841M771 1121V1191M771 1121H841M771 351V421M771 351H841M771 1191H841M771 421V491M771 421H841M771 491V561M771 491H841M771 561H841M1 631V701M1 631V561M1 631H71M1 701V771M1 701H71M1 771V841M1 771H71M1 841V911M1 841H71M1 71V1H71M1 71V141M1 71H71M1 911V981M1 911H71M1 141V211M1 141H71M1 981V1051M1 981H71M1 211V281M1 211H71M1 1051V1121M1 1051H71M1 281V351M1 281H71M1 1121V1191H71M1 1121H71M1 351V421M1 351H71M1 421V491M1 421H71M1 491V561M1 491H71M1 561H71M841 631V701M841 631V561M841 631H911M841 701V771M841 701H911M841 771V841M841 771H911M841 1V71M841 1H911M841 841V911M841 841H911M841 71V141M841 71H911M841 911V981M841 911H911M841 141V211M841 141H911M841 981V1051M841 981H911M841 211V281M841 211H911M841 1051V1121M841 1051H911M841 281V351M841 281H911M841 1121V1191M841 1121H911M841 351V421M841 351H911M841 1191H911M841 421V491M841 421H911M841 491V561M841 491H911M841 561H911M71 631V701M71 631V561M71 631H141M71 701V771M71 701H141M71 771V841M71 771H141M71 1V71M71 1H141M71 841V911M71 841H141M71 71V141M71 71H141M71 911V981M71 911H141M71 141V211M71 141H141M71 981V1051M71 981H141M71 211V281M71 211H141M71 1051V1121M71 1051H141M71 281V351M71 281H141M71 1121V1191M71 1121H141M71 351V421M71 351H141M71 1191H141M71 421V491M71 421H141M71 491V561M71 491H141M71 561H141M911 631V701M911 631V561M911 631H981M911 701V771M911 701H981M911 771V841M911 771H981M911 1V71M911 1H981M911 841V911M911 841H981M911 71V141M911 71H981M911 911V981M911 911H981M911 141V211M911 141H981M911 981V1051M911 981H981M911 211V281M911 211H981M911 1051V1121M911 1051H981M911 281V351M911 281H981M911 1121V1191M911 1121H981M911 351V421M911 351H981M911 1191H981M911 421V491M911 421H981M911 491V561M911 491H981M911 561H981M141 631V701M141 631V561M141 631H211M141 701V771M141 701H211M141 771V841M141 771H211M141 1V71M141 1H211M141 841V911M141 841H211M141 71V141M141 71H211M141 911V981M141 911H211M141 141V211M141 141H211M141 981V1051M141 981H211M141 211V281M141 211H211M141 1051V1121M141 1051H211M141 281V351M141 281H211M141 1121V1191M141 1121H211M141 351V421M141 351H211M141 1191H211M141 421V491M141 421H211M141 491V561M141 491H211M141 561H211M981 631V701M981 631V561M981 631H1051M981 701V771M981 701H1051M981 771V841M981 771H1051M981 1V71M981 1H1051M981 841V911M981 841H1051M981 71V141M981 71H1051M981 911V981M981 911H1051M981 141V211M981 141H1051M981 981V1051M981 981H1051M981 211V281M981 211H1051M981 1051V1121M981 1051H1051M981 281V351M981 281H1051M981 1121V1191M981 1121H1051M981 351V421M981 351H1051M981 1191H1051M981 421V491M981 421H1051M981 491V561M981 491H1051M981 561H1051M211 631V701M211 631V561M211 631H281M211 701V771M211 701H281M211 771V841M211 771H281M211 1V71M211 1H281M211 841V911M211 841H281M211 71V141M211 71H281M211 911V981M211 911H281M211 141V211M211 141H281M211 981V1051M211 981H281M211 211V281M211 211H281M211 1051V1121M211 1051H281M211 281V351M211 281H281M211 1121V1191M211 1121H281M211 351V421M211 351H281M211 1191H281M211 421V491M211 421H281M211 491V561M211 491H281M211 561H281M1051 631V701M1051 631V561M1051 631H1121M1051 701V771M1051 701H1121M1051 771V841M1051 771H1121M1051 1V71M1051 1H1121M1051 841V911M1051 841H1121M1051 71V141M1051 71H1121M1051 911V981M1051 911H1121M1051 141V211M1051 141H1121M1051 981V1051M1051 981H1121M1051 211V281M1051 211H1121M1051 1051V1121M1051 1051H1121M1051 281V351M1051 281H1121M1051 1121V1191M1051 1121H1121M1051 351V421M1051 351H1121M1051 1191H1121M1051 421V491M1051 421H1121M1051 491V561M1051 491H1121M1051 561H1121M281 631V701M281 631V561M281 631H351M281 701V771M281 701H351M281 771V841M281 771H351M281 1V71M281 1H351M281 841V911M281 841H351M281 71V141M281 71H351M281 911V981M281 911H351M281 141V211M281 141H351M281 981V1051M281 981H351M281 211V281M281 211H351M281 1051V1121M281 1051H351M281 281V351M281 281H351M281 1121V1191M281 1121H351M281 351V421M281 351H351M281 1191H351M281 421V491M281 421H351M281 491V561M281 491H351M281 561H351M1121 631V701M1121 631V561M1121 631H1191M1121 701V771M1121 701H1191M1121 771V841M1121 771H1191M1121 1V71M1121 1H1191M1121 841V911M1121 841H1191M1121 71V141M1121 71H1191M1121 911V981M1121 911H1191M1121 141V211M1121 141H1191M1121 981V1051M1121 981H1191M1121 211V281M1121 211H1191M1121 1051V1121M1121 1051H1191M1121 281V351M1121 281H1191M1121 1121V1191M1121 1121H1191M1121 351V421M1121 351H1191M1121 1191H1191M1121 421V491M1121 421H1191M1121 491V561M1121 491H1191M1121 561H1191M351 631V701M351 631V561M351 631H421M351 701V771M351 701H421M351 771V841M351 771H421M351 1V71M351 1H421M351 841V911M351 841H421M351 71V141M351 71H421M351 911V981M351 911H421M351 141V211M351 141H421M351 981V1051M351 981H421M351 211V281M351 211H421M351 1051V1121M351 1051H421M351 281V351M351 281H421M351 1121V1191M351 1121H421M351 351V421M351 351H421M351 1191H421M351 421V491M351 421H421M351 491V561M351 491H421M351 561H421M1191 631V701M1191 631V561M1191 631H1261M1191 701V771M1191 701H1261M1191 771V841M1191 771H1261M1191 1V71M1191 1H1261M1191 841V911M1191 841H1261M1191 71V141M1191 71H1261M1191 911V981M1191 911H1261M1191 141V211M1191 141H1261M1191 981V1051M1191 981H1261M1191 211V281M1191 211H1261M1191 1051V1121M1191 1051H1261M1191 281V351M1191 281H1261M1191 1121V1191M1191 1121H1261M1191 351V421M1191 351H1261M1191 1191H1261M1191 421V491M1191 421H1261M1191 491V561M1191 491H1261M1191 561H1261M421 631V701M421 631V561M421 631H491M421 701V771M421 701H491M421 771V841M421 771H491M421 1V71M421 1H491M421 841V911M421 841H491M421 71V141M421 71H491M421 911V981M421 911H491M421 141V211M421 141H491M421 981V1051M421 981H491M421 211V281M421 211H491M421 1051V1121M421 1051H491M421 281V351M421 281H491M421 1121V1191M421 1121H491M421 351V421M421 351H491M421 1191H491M421 421V491M421 421H491M421 491V561M421 491H491M421 561H491M1261 631V701M1261 631V561M1261 631H1331M1261 701V771M1261 701H1331M1261 771V841M1261 771H1331M1261 1V71M1261 1H1331M1261 841V911M1261 841H1331M1261 71V141M1261 71H1331M1261 911V981M1261 911H1331M1261 141V211M1261 141H1331M1261 981V1051M1261 981H1331M1261 211V281M1261 211H1331M1261 1051V1121M1261 1051H1331M1261 281V351M1261 281H1331M1261 1121V1191M1261 1121H1331M1261 351V421M1261 351H1331M1261 1191H1331M1261 421V491M1261 421H1331M1261 491V561M1261 491H1331M1261 561H1331M491 631V701M491 631V561M491 701V771M491 771V841M491 1V71M491 841V911M491 71V141M491 911V981M491 141V211M491 981V1051M491 211V281M491 1051V1121M491 281V351M491 1121V1191M491 351V421M491 421V491M491 491V561M1331 631V701M1331 631V561M1331 631H1401M1331 701V771M1331 701H1401M1331 771V841M1331 771H1401M1331 1V71M1331 1H1401V71M1331 841V911M1331 841H1401M1331 71V141M1331 71H1401M1331 911V981M1331 911H1401M1331 141V211M1331 141H1401M1331 981V1051M1331 981H1401M1331 211V281M1331 211H1401M1331 1051V1121M1331 1051H1401M1331 281V351M1331 281H1401M1331 1121V1191M1331 1121H1401M1331 351V421M1331 351H1401M1331 1191H1401V1121M1331 421V491M1331 421H1401M1331 491V561M1331 491H1401M1331 561H1401M1401 631V701M1401 631V561M1401 701V771M1401 771V841M1401 841V911M1401 71V141M1401 911V981M1401 141V211M1401 981V1051M1401 211V281M1401 1051V1121M1401 281V351M1401 351V421M1401 421V491M1401 491V561" stroke="url(#paint0_radial_27615_165505)"></path><defs><radialGradient id="paint0_radial_27615_165505" cx="0" cy="0" r="1" gradientUnits="userSpaceOnUse" gradientTransform="translate(687 588) rotate(157.112) scale(773.932 571.295)"><stop stop-color="black"></stop><stop offset="1" stop-color="black" stop-opacity="0"></stop></radialGradient></defs></svg>