<svg width="185" height="59" viewBox="0 0 185 59" fill="none" xmlns="http://www.w3.org/2000/svg">
<g clip-path="url(#clip0_36_14418)">
<path d="M177.89 58.8533H6.97341C3.21325 58.8533 0.136749 55.551 0.136749 51.515V7.48511C0.136749 3.44904 3.21325 0.146803 6.97341 0.146803H177.89C181.65 0.146803 184.727 3.44904 184.727 7.48511V51.515C184.727 55.551 181.65 58.8533 177.89 58.8533Z" fill="black"/>
<path d="M177.89 0.146803H6.97341C3.21325 0.146803 0.136749 3.44904 0.136749 7.48511V51.515C0.136749 55.551 3.21325 58.8533 6.97341 58.8533H177.89C181.65 58.8533 184.727 55.551 184.727 51.515V7.48511C184.727 3.44904 181.65 0.146803 177.89 0.146803ZM177.89 1.32093C181.057 1.32093 183.633 4.08659 183.633 7.48511V51.515C183.633 54.9141 181.057 57.6797 177.89 57.6797H6.97341C3.80721 57.6797 1.23061 54.9141 1.23061 51.515V7.48511C1.23061 4.08659 3.80721 1.32093 6.97341 1.32093H177.89Z" fill="#A6A6A6"/>
<path d="M64.9734 15.1804C64.9734 16.41 64.6342 17.3893 63.9548 18.1197C63.183 18.9883 62.1772 19.4229 60.9408 19.4229C59.7566 19.4229 58.7499 18.9826 57.922 18.1008C57.0925 17.2196 56.6786 16.1269 56.6786 14.8232C56.6786 13.5189 57.0925 12.4268 57.922 11.545C58.7499 10.6638 59.7566 10.223 60.9408 10.223C61.5283 10.223 62.0908 10.3462 62.6249 10.5922C63.159 10.8388 63.5874 11.1661 63.9079 11.576L63.1867 12.3505C62.6436 11.6539 61.8958 11.3059 60.9408 11.3059C60.0771 11.3059 59.3304 11.6316 58.7002 12.2834C58.0699 12.9359 57.7549 13.782 57.7549 14.8232C57.7549 15.8644 58.0699 16.7105 58.7002 17.363C59.3304 18.0148 60.0771 18.3405 60.9408 18.3405C61.8569 18.3405 62.6207 18.013 63.2321 17.3573C63.6291 16.93 63.8586 16.3362 63.92 15.5736H60.9408V14.5159H64.9163C64.9547 14.7459 64.9734 14.9666 64.9734 15.1804" fill="white"/>
<path d="M64.9735 15.1806H64.8367C64.8356 16.3822 64.5087 17.3155 63.8581 18.0162L63.8566 18.0173L63.8561 18.0185C63.1088 18.8571 62.1484 19.2745 60.9408 19.2763C59.7882 19.2745 58.8236 18.8526 58.0181 17.9972C57.2144 17.1401 56.8169 16.0938 56.8154 14.8234C56.8169 13.5524 57.2144 12.5067 58.0181 11.6502C58.8236 10.7942 59.7882 10.3717 60.9408 10.3699C61.5107 10.3699 62.0534 10.4893 62.5709 10.7272C63.089 10.9668 63.4982 11.2809 63.8031 11.6709L63.9079 11.5762L63.8112 11.4724L63.0901 12.2475L63.1868 12.3507L63.292 12.2568C62.7236 11.5257 61.9258 11.1572 60.9408 11.1594C60.0452 11.1582 59.2573 11.5016 58.6056 12.1782C57.9477 12.857 57.6171 13.7507 57.6182 14.8234C57.6171 15.8961 57.9477 16.7898 58.6056 17.4686C59.2573 18.1452 60.0452 18.4886 60.9408 18.4874C61.8872 18.4892 62.6938 18.1446 63.3288 17.4612C63.753 17.0048 63.9933 16.3725 64.0564 15.5864L64.0691 15.4271H61.0775V14.6628H64.9163V14.5161L64.7816 14.5419C64.8191 14.7644 64.8367 14.9759 64.8367 15.1806H64.9735H65.1102C65.1102 14.9575 65.0909 14.7283 65.0508 14.4898L65.0306 14.3693H60.804V15.5738V15.7206H63.9201V15.5738L63.7839 15.5612C63.7236 16.2997 63.5045 16.8558 63.1355 17.2537C62.5479 17.882 61.8269 18.1921 60.9408 18.1939C60.1092 18.1927 59.4036 17.8854 58.7953 17.2577C58.1928 16.6322 57.8931 15.8336 57.8916 14.8234C57.8931 13.8132 58.1928 13.0147 58.7953 12.3891C59.4036 11.7614 60.1092 11.4541 60.9408 11.4529C61.8654 11.4553 62.5635 11.7831 63.0822 12.4454L63.1783 12.568L64.0046 11.68L64.0932 11.5849L64.0125 11.4821C63.6765 11.0522 63.229 10.711 62.6788 10.4577C62.1276 10.2036 61.546 10.0764 60.9408 10.0764C59.7252 10.0752 58.6762 10.5339 57.8253 11.4415C56.9713 12.3473 56.5408 13.4859 56.5419 14.8234C56.5408 16.1603 56.9713 17.2995 57.8259 18.2059C58.6762 19.1129 59.7252 19.571 60.9408 19.5698C62.2066 19.571 63.2568 19.1197 64.0536 18.2213L63.9548 18.1199L64.0515 18.2237C64.7597 17.464 65.1111 16.4378 65.1102 15.1806H64.9735Z" fill="white"/>
<path d="M71.2759 11.5022H67.5398V14.2942H70.909V15.3524H67.5398V18.1445H71.2759V19.2263H66.4865V10.4203H71.2759V11.5022Z" fill="white"/>
<path d="M71.2759 11.5021V11.3554H67.4031V14.441H70.7723V15.2052L67.4031 15.2056V18.2912H71.1392V19.0795H66.6233V10.5671H71.1392V11.5021H71.2759V11.3554V11.5021H71.4126V10.4203V10.2735H66.3498V19.373H71.4126V18.1445V17.9977H67.6765V15.4992H71.0458V14.2942V14.1474H67.6765V11.6489H71.4126V11.5021H71.2759" fill="white"/>
<path d="M75.7213 19.2263H74.6664V11.5022H72.3751V10.4203H78.0127V11.5022H75.7213V19.2263Z" fill="white"/>
<path d="M75.7213 19.2263V19.0795H74.8032V11.3554H72.5118V10.5671H77.876V11.3554H75.5846V19.2263H75.7213V19.0795V19.2263H75.8581V11.6489H78.1494V10.4203V10.2735H72.2383V11.5021V11.6489H74.5297V19.373H75.7213H75.8581V19.2263H75.7213" fill="white"/>
<path d="M82.0918 19.2263V10.4203H83.1456V19.2263H82.0918Z" fill="white"/>
<path d="M82.0917 19.2263H82.2285V10.5671H83.0088V19.0795H82.0917V19.2263H82.2285H82.0917V19.373H83.1455H83.2822V10.2735H82.0917H81.955V19.373H82.0917V19.2263Z" fill="white"/>
<path d="M87.8217 19.2263H86.7668V11.5022H84.4756V10.4203H90.1131V11.5022H87.8217V19.2263Z" fill="white"/>
<path d="M87.8217 19.2263V19.0795H86.9035V11.3554H84.6123V10.5671H89.9763V11.3554H87.6849V19.2263H87.8217V19.0795V19.2263H87.9584V11.6489H90.2498V10.4203V10.2735H84.3388V11.5021V11.6489H86.63V19.373H87.8217H87.9584V19.2263H87.8217" fill="white"/>
<path d="M95.5482 17.351C96.1554 18.0108 96.8984 18.3405 97.7771 18.3405C98.6557 18.3405 99.3991 18.0108 100.005 17.351C100.613 16.6911 100.918 15.8476 100.918 14.8232C100.918 13.7988 100.613 12.9553 100.005 12.2954C99.3991 11.6356 98.6557 11.3059 97.7771 11.3059C96.8984 11.3059 96.1554 11.6356 95.5482 12.2954C94.9419 12.9553 94.6376 13.7988 94.6376 14.8232C94.6376 15.8476 94.9419 16.6911 95.5482 17.351ZM100.785 18.0882C99.9786 18.9784 98.9755 19.4229 97.7771 19.4229C96.5774 19.4229 95.5749 18.9784 94.7701 18.0882C93.9629 17.1989 93.5613 16.1103 93.5613 14.8232C93.5613 13.5361 93.9629 12.4473 94.7701 11.5582C95.5749 10.6678 96.5774 10.223 97.7771 10.223C98.9693 10.223 99.9696 10.6702 100.78 11.564C101.589 12.4578 101.994 13.5441 101.994 14.8232C101.994 16.1103 101.59 17.1989 100.785 18.0882Z" fill="white"/>
<path d="M95.5482 17.3512L95.4509 17.4543C96.0807 18.1406 96.8664 18.4892 97.7771 18.4874C98.6871 18.4892 99.4739 18.1406 100.103 17.4543C100.737 16.7675 101.055 15.8788 101.054 14.8234C101.055 13.768 100.737 12.8793 100.103 12.1925C99.4739 11.5062 98.6871 11.1576 97.7771 11.1594C96.8664 11.1576 96.0807 11.5062 95.4509 12.1925C94.8186 12.8793 94.4991 13.768 94.5008 14.8234C94.4991 15.8788 94.8186 16.7675 95.4509 17.4543L95.5482 17.3512L95.6454 17.248C95.0654 16.6144 94.7753 15.8175 94.7743 14.8234C94.7753 13.8294 95.0654 13.0324 95.6454 12.3988C96.2307 11.7654 96.9299 11.4547 97.7771 11.4529C98.6236 11.4547 99.3243 11.7654 99.9082 12.3988C100.489 13.0324 100.779 13.8294 100.78 14.8234C100.779 15.8175 100.489 16.6144 99.9082 17.248C99.3243 17.8814 98.6236 18.1921 97.7771 18.1939C96.9299 18.1921 96.2307 17.8814 95.6454 17.248L95.5482 17.3512ZM100.785 18.0884L100.687 17.9864C99.9034 18.8486 98.9446 19.2745 97.7771 19.2763C96.6089 19.2745 95.6502 18.8486 94.8676 17.9864L94.864 17.9818L94.8676 17.9864C94.0853 17.1212 93.6991 16.0778 93.698 14.8234C93.6991 13.569 94.0853 12.5256 94.8676 11.6604C95.6502 10.7982 96.6089 10.3717 97.7771 10.3699C98.9371 10.3717 99.8937 10.8 100.682 11.6668C101.467 12.5359 101.856 13.5777 101.857 14.8234C101.856 16.0778 101.468 17.1212 100.687 17.9864L100.785 18.0884L100.883 18.1904C101.712 17.2766 102.132 16.1431 102.131 14.8234C102.132 13.5112 101.711 12.38 100.878 11.4622C100.045 10.5408 99.0012 10.0748 97.7771 10.0764C96.5465 10.0748 95.4996 10.5386 94.6717 11.4564V11.4559C93.8412 12.3702 93.4235 13.5037 93.4246 14.8234C93.4235 16.1431 93.8412 17.2766 94.6717 18.191L94.6754 18.1951L94.6717 18.1904C95.4996 19.1082 96.5465 19.571 97.7771 19.5698C99.0071 19.571 100.054 19.1082 100.883 18.1904L100.785 18.0884" fill="white"/>
<path d="M103.473 19.2263V10.4203H104.756L108.743 17.2708H108.789L108.743 15.5737V10.4203H109.798V19.2263H108.698L104.527 12.0439H104.481L104.527 13.7415V19.2263H103.473Z" fill="white"/>
<path d="M103.473 19.2263H103.61V10.5671H104.68L108.668 17.4175H108.789H108.929L108.88 15.5715V10.5671H109.662V19.0795H108.774L104.603 11.8971H104.481H104.341L104.39 13.7438V19.0795H103.473V19.2263H103.61H103.473V19.373H104.527H104.663V13.7391L104.618 12.0399L104.481 12.0438V12.1906H104.527V12.0438L104.411 12.1219L108.622 19.373H109.798H109.935V10.2735H108.744H108.607V15.5755L108.652 17.2747L108.789 17.2708V17.124H108.744V17.2708L108.859 17.1928L104.832 10.2735H103.473H103.337V19.373H103.473V19.2263Z" fill="white"/>
<path d="M146.354 44.1767H148.905V25.8292H146.354V44.1767ZM169.335 32.4383L166.41 40.3929H166.322L163.287 32.4383H160.538L165.09 43.5563L162.495 49.7406H165.157L172.172 32.4383H169.335ZM154.865 42.0928C154.029 42.0928 152.864 41.6444 152.864 40.5345C152.864 39.1184 154.316 38.5755 155.568 38.5755C156.691 38.5755 157.217 38.8351 157.9 39.1896C157.701 40.8888 156.338 42.0928 154.865 42.0928V42.0928ZM155.173 32.0369C153.326 32.0369 151.413 32.9106 150.621 34.8462L152.886 35.8609C153.37 34.8462 154.271 34.5154 155.217 34.5154C156.536 34.5154 157.878 35.3656 157.9 36.8763V37.0648C157.437 36.7816 156.449 36.3568 155.239 36.3568C152.798 36.3568 150.312 37.7963 150.312 40.4874C150.312 42.9424 152.314 44.5241 154.556 44.5241C156.272 44.5241 157.217 43.6979 157.812 42.7303H157.9V44.1463H160.362V37.1118C160.362 33.8549 158.098 32.0369 155.173 32.0369V32.0369ZM139.405 34.6718H135.776V28.3827H139.405C141.312 28.3827 142.395 30.0779 142.395 31.5272C142.395 32.9491 141.312 34.6718 139.405 34.6718ZM139.339 25.8292H133.226V44.1767H135.776V37.2254H139.339C142.167 37.2254 144.947 35.0279 144.947 31.5272C144.947 28.0267 142.167 25.8292 139.339 25.8292ZM106.002 42.0961C104.24 42.0961 102.764 40.5121 102.764 38.3364C102.764 36.1379 104.24 34.5298 106.002 34.5298C107.743 34.5298 109.108 36.1379 109.108 38.3364C109.108 40.5121 107.743 42.0961 106.002 42.0961V42.0961ZM108.932 33.4657H108.844C108.271 32.7329 107.169 32.0708 105.782 32.0708C102.874 32.0708 100.209 34.8135 100.209 38.3364C100.209 41.8359 102.874 44.5551 105.782 44.5551C107.169 44.5551 108.271 43.8929 108.844 43.1367H108.932V44.0351C108.932 46.4235 107.743 47.7003 105.826 47.7003C104.262 47.7003 103.293 46.494 102.896 45.4775L100.671 46.4705C101.31 48.1256 103.007 50.1592 105.826 50.1592C108.822 50.1592 111.355 48.2672 111.355 43.6567V32.4492H108.932V33.4657ZM113.117 44.1767H115.673V25.8286H113.117V44.1767ZM119.44 38.1238C119.373 35.7118 121.18 34.4826 122.479 34.4826C123.493 34.4826 124.352 35.0261 124.638 35.8071L119.44 38.1238ZM127.37 36.0432C126.886 34.6478 125.409 32.0708 122.391 32.0708C119.395 32.0708 116.906 34.6008 116.906 38.3129C116.906 41.8124 119.373 44.5551 122.677 44.5551C125.343 44.5551 126.886 42.8053 127.524 41.7888L125.542 40.3699C124.881 41.4104 123.977 42.0961 122.677 42.0961C121.378 42.0961 120.453 41.4576 119.858 40.2048L127.634 36.7524L127.37 36.0432ZM65.4184 33.9861V36.6342H71.3218C71.1456 38.1238 70.683 39.2113 69.978 39.968C69.1192 40.8905 67.7754 41.907 65.4184 41.907C61.7836 41.907 58.9421 38.7623 58.9421 34.861C58.9421 30.9597 61.7836 27.8146 65.4184 27.8146C67.379 27.8146 68.8105 28.6424 69.8679 29.7064L71.6081 27.8387C70.1324 26.3251 68.1716 25.1665 65.4184 25.1665C60.4398 25.1665 56.2545 29.5173 56.2545 34.861C56.2545 40.2048 60.4398 44.5551 65.4184 44.5551C68.106 44.5551 70.1324 43.6097 71.7182 41.8359C73.3484 40.0862 73.8552 37.6273 73.8552 35.6414C73.8552 35.0261 73.8113 34.4592 73.7227 33.9861H65.4184ZM80.5669 42.0961C78.8043 42.0961 77.2842 40.5356 77.2842 38.3129C77.2842 36.0667 78.8043 34.5298 80.5669 34.5298C82.3289 34.5298 83.8489 36.0667 83.8489 38.3129C83.8489 40.5356 82.3289 42.0961 80.5669 42.0961V42.0961ZM80.5669 32.0708C77.3504 32.0708 74.729 34.6953 74.729 38.3129C74.729 41.907 77.3504 44.5551 80.5669 44.5551C83.7827 44.5551 86.4042 41.907 86.4042 38.3129C86.4042 34.6953 83.7827 32.0708 80.5669 32.0708ZM93.3011 42.0961C91.5392 42.0961 90.019 40.5356 90.019 38.3129C90.019 36.0667 91.5392 34.5298 93.3011 34.5298C95.0632 34.5298 96.5833 36.0667 96.5833 38.3129C96.5833 40.5356 95.0632 42.0961 93.3011 42.0961ZM93.3011 32.0708C90.0848 32.0708 87.4639 34.6953 87.4639 38.3129C87.4639 41.907 90.0848 44.5551 93.3011 44.5551C96.5171 44.5551 99.1386 41.907 99.1386 38.3129C99.1386 34.6953 96.5171 32.0708 93.3011 32.0708Z" fill="white"/>
<path d="M14.5071 47.6836L14.4055 47.5792C14.0076 47.1274 13.7727 46.4257 13.7727 45.517V45.7309V13.2721C13.7727 13.2691 13.7727 13.2669 13.7727 13.2646C13.7727 13.2674 13.7727 13.2697 13.7727 13.2727V13.4871C13.7727 12.5032 14.0466 11.762 14.5055 11.3176L31.4465 29.5012L14.5071 47.6836ZM13.7727 13.2628C13.7727 13.182 13.7748 13.1034 13.7786 13.0261C13.7748 13.1028 13.7727 13.182 13.7727 13.2628ZM13.7786 13.0226C13.7786 13.0215 13.7786 13.0204 13.779 13.0192C13.7786 13.0204 13.7786 13.0215 13.7786 13.0226ZM13.779 13.0123C13.779 13.0117 13.779 13.0111 13.779 13.0105C13.779 13.0111 13.779 13.0117 13.779 13.0123Z" fill="url(#paint0_linear_36_14418)"/>
<path d="M37.0926 35.7793L37.2214 35.7008L43.9116 31.6205C44.5495 31.2313 44.9746 30.7595 45.1867 30.2602C44.9751 30.7595 44.5499 31.2319 43.9116 31.6211L37.2214 35.7014L37.0926 35.7793V35.7793ZM37.0942 35.5643L31.4465 29.5011L37.0937 23.4389L43.9116 27.5965C44.7774 28.1246 45.2635 28.8051 45.3447 29.5005C45.3447 29.5011 45.3447 29.5023 45.3447 29.5033C45.2635 30.197 44.7774 30.8782 43.9116 31.4061L37.0942 35.5643" fill="url(#paint1_linear_36_14418)"/>
<path d="M15.7148 48.376C15.2415 48.376 14.8286 48.2109 14.5066 47.899L14.5071 47.8984C14.8291 48.2103 15.2426 48.376 15.7159 48.376C15.7569 48.376 15.7986 48.3748 15.8408 48.3726C15.798 48.3748 15.7558 48.376 15.7148 48.376V48.376ZM15.7153 48.161C15.2421 48.1615 14.8291 47.9959 14.5071 47.684V47.6835L31.4465 29.5011L37.0942 35.5643L17.2471 47.6686C16.698 48.0027 16.1777 48.161 15.7153 48.161V48.161ZM14.5023 47.895C14.4724 47.8658 14.443 47.8348 14.4142 47.8027L14.5023 47.895Z" fill="url(#paint2_linear_36_14418)"/>
<path d="M31.4465 29.501L14.5055 11.3174C14.8275 11.0061 15.2399 10.841 15.7126 10.841C16.1762 10.841 16.6969 10.9998 17.2471 11.3346L37.0937 23.4388L31.4465 29.501V29.501ZM37.2214 23.3019L17.2471 11.1203C16.6969 10.7854 16.1762 10.6266 15.7126 10.6266C15.7104 10.6266 15.7089 10.6266 15.7067 10.6266C15.7094 10.6266 15.7115 10.6266 15.7148 10.6266C16.1773 10.6266 16.6975 10.7848 17.2471 11.1197L37.2214 23.3019V23.3019Z" fill="url(#paint3_linear_36_14418)"/>
<path d="M15.8408 48.3726C16.2707 48.3461 16.7467 48.1873 17.2471 47.8829L37.0926 35.7793L17.2471 47.8829C16.7471 48.1879 16.2707 48.3461 15.8408 48.3726V48.3726ZM14.5066 47.8989L14.5024 47.895C14.5039 47.8962 14.5055 47.8978 14.5066 47.8989ZM14.4142 47.8027L14.4055 47.7936V47.793C14.4088 47.7964 14.4114 47.7997 14.4142 47.8027Z" fill="white"/>
<path d="M37.0926 35.7793L37.2214 35.7008L37.0926 35.7793Z" fill="url(#paint4_linear_36_14418)"/>
<path d="M15.7159 48.376C15.2426 48.376 14.8291 48.2103 14.5071 47.8984L14.5066 47.899C14.5055 47.8978 14.5039 47.8962 14.5024 47.895L14.4142 47.8027C14.4114 47.7998 14.4088 47.7964 14.4055 47.793L14.5071 47.684C14.8291 47.9959 15.2421 48.1615 15.7153 48.161C16.1777 48.161 16.698 48.0027 17.2471 47.6686L37.0942 35.5643L37.2214 35.7008L37.0926 35.7793L17.2471 47.883C16.7467 48.1874 16.2707 48.3462 15.8408 48.3726C15.7986 48.3748 15.7569 48.376 15.7159 48.376" fill="url(#paint5_linear_36_14418)"/>
<path d="M14.4055 47.7937C14.0076 47.3418 13.7727 46.6401 13.7727 45.7315V45.7309C13.7727 46.6401 14.0076 47.3412 14.4055 47.7931V47.7937" fill="white"/>
<path d="M14.4055 47.7932C14.0076 47.3413 13.7727 46.6402 13.7727 45.731V45.5172C13.7727 46.4258 14.0076 47.1275 14.4055 47.5794L14.5071 47.6837L14.4055 47.7932" fill="url(#paint6_linear_36_14418)"/>
<path d="M14.4055 47.7932L14.5071 47.6837V47.6842L14.4055 47.7932" fill="url(#paint7_linear_36_14418)"/>
<path d="M45.1866 30.2603C45.2918 30.0125 45.3447 29.758 45.3447 29.5034C45.3447 29.5029 45.3447 29.5024 45.3447 29.5024C45.3447 29.7574 45.2918 30.0119 45.1866 30.2603Z" fill="white"/>
<path d="M37.2214 35.7009L37.0942 35.5644L43.9116 31.4063C44.7774 30.8783 45.2635 30.1972 45.3447 29.5034C45.3447 29.7581 45.2918 30.0126 45.1866 30.2603C44.9746 30.7596 44.5495 31.2315 43.9116 31.6207L37.2214 35.7009Z" fill="url(#paint8_linear_36_14418)"/>
<path d="M45.3447 29.501V29.5004C45.3441 28.7327 44.8661 27.9651 43.9116 27.3826L37.2214 23.3023H37.2208L37.2214 23.3019L43.9116 27.382C44.8672 27.9645 45.3458 28.7332 45.3447 29.501Z" fill="white"/>
<path d="M45.3447 29.5005C45.2635 28.8051 44.7774 28.1246 43.9116 27.5965L37.0937 23.4389L37.2208 23.3024H37.2214L43.9116 27.3827C44.8661 27.9652 45.3442 28.7328 45.3447 29.5005Z" fill="url(#paint9_linear_36_14418)"/>
<path d="M13.7727 13.2646C13.7727 13.2641 13.7727 13.2635 13.7727 13.2629C13.7727 13.2635 13.7727 13.2641 13.7727 13.2646ZM13.7786 13.0262C13.7786 13.025 13.7786 13.0238 13.7786 13.0226C13.7786 13.0238 13.7786 13.025 13.7786 13.0262ZM13.779 13.0193C13.779 13.0169 13.779 13.0147 13.779 13.0124C13.779 13.0147 13.779 13.0169 13.779 13.0193ZM13.779 13.0106C13.8582 11.5029 14.622 10.632 15.7024 10.6268C15.234 10.6298 14.826 10.7949 14.5066 11.1038V11.1032L14.5028 11.1073C14.4691 11.1399 14.4371 11.1744 14.4055 11.2099C14.0466 11.6175 13.8202 12.228 13.779 13.0106Z" fill="white"/>
<path d="M13.7727 13.4871V13.2726C13.7727 13.2697 13.7727 13.2674 13.7727 13.2646C13.7727 13.264 13.7727 13.2634 13.7727 13.2628C13.7727 13.1819 13.7748 13.1028 13.7786 13.0261C13.7786 13.0249 13.7786 13.0237 13.7786 13.0225C13.7786 13.0215 13.7786 13.0203 13.779 13.0192C13.779 13.0168 13.779 13.0146 13.779 13.0123C13.779 13.0117 13.779 13.0111 13.779 13.0105C13.8202 12.228 14.0466 11.6174 14.4055 11.2098L14.5055 11.3176C14.0466 11.762 13.7727 12.5031 13.7727 13.4871V13.4871ZM14.5028 11.1072L14.5066 11.1031C14.5055 11.1049 14.5038 11.1061 14.5028 11.1072Z" fill="url(#paint10_linear_36_14418)"/>
<path d="M37.0937 23.439L17.2471 11.3347C16.6969 10.9999 16.1762 10.8411 15.7126 10.8411C15.2399 10.8411 14.8275 11.0063 14.5055 11.3175L14.4055 11.2098C14.4371 11.1743 14.4691 11.1398 14.5028 11.1072C14.5039 11.1061 14.5055 11.1049 14.5066 11.1037C14.826 10.7948 15.234 10.6297 15.7025 10.6267C15.7036 10.6267 15.7051 10.6267 15.7067 10.6267C15.7089 10.6267 15.7104 10.6267 15.7126 10.6267C16.1762 10.6267 16.6969 10.7855 17.2471 11.1204L37.2214 23.302L37.2208 23.3025L37.0937 23.439Z" fill="url(#paint11_linear_36_14418)"/>
</g>
<defs>
<linearGradient id="paint0_linear_36_14418" x1="29.9443" y1="12.9297" x2="5.3749" y2="35.8195" gradientUnits="userSpaceOnUse">
<stop stop-color="#00A0FF"/>
<stop offset="0.00657445" stop-color="#00A1FF"/>
<stop offset="0.2601" stop-color="#00BEFF"/>
<stop offset="0.5122" stop-color="#00D2FF"/>
<stop offset="0.7604" stop-color="#00DFFF"/>
<stop offset="1" stop-color="#00E3FF"/>
</linearGradient>
<linearGradient id="paint1_linear_36_14418" x1="46.3996" y1="29.502" x2="13.3143" y2="29.502" gradientUnits="userSpaceOnUse">
<stop stop-color="#FFE000"/>
<stop offset="0.4087" stop-color="#FFBD00"/>
<stop offset="0.7754" stop-color="#FFA500"/>
<stop offset="1" stop-color="#FF9C00"/>
</linearGradient>
<linearGradient id="paint2_linear_36_14418" x1="34.0835" y1="32.8698" x2="0.765563" y2="63.9101" gradientUnits="userSpaceOnUse">
<stop stop-color="#FF3A44"/>
<stop offset="1" stop-color="#C31162"/>
</linearGradient>
<linearGradient id="paint3_linear_36_14418" x1="10.1146" y1="0.405173" x2="24.9924" y2="14.2659" gradientUnits="userSpaceOnUse">
<stop stop-color="#32A071"/>
<stop offset="0.0685" stop-color="#2DA771"/>
<stop offset="0.4762" stop-color="#15CF74"/>
<stop offset="0.8009" stop-color="#06E775"/>
<stop offset="1" stop-color="#00F076"/>
</linearGradient>
<linearGradient id="paint4_linear_36_14418" x1="46.3997" y1="29.5021" x2="13.3142" y2="29.5021" gradientUnits="userSpaceOnUse">
<stop stop-color="#CCB300"/>
<stop offset="0.4087" stop-color="#CC9700"/>
<stop offset="0.7754" stop-color="#CC8400"/>
<stop offset="1" stop-color="#CC7D00"/>
</linearGradient>
<linearGradient id="paint5_linear_36_14418" x1="34.0835" y1="32.8698" x2="0.765574" y2="63.9101" gradientUnits="userSpaceOnUse">
<stop stop-color="#CC2E36"/>
<stop offset="1" stop-color="#9C0E4E"/>
</linearGradient>
<linearGradient id="paint6_linear_36_14418" x1="29.9444" y1="12.9298" x2="5.37497" y2="35.8197" gradientUnits="userSpaceOnUse">
<stop stop-color="#008DE0"/>
<stop offset="0.00657445" stop-color="#008DE0"/>
<stop offset="0.2601" stop-color="#00A7E0"/>
<stop offset="0.5122" stop-color="#00B8E0"/>
<stop offset="0.7604" stop-color="#00C4E0"/>
<stop offset="1" stop-color="#00C7E0"/>
</linearGradient>
<linearGradient id="paint7_linear_36_14418" x1="34.0841" y1="32.8703" x2="0.766662" y2="63.9117" gradientUnits="userSpaceOnUse">
<stop stop-color="#E0333C"/>
<stop offset="1" stop-color="#AB0F56"/>
</linearGradient>
<linearGradient id="paint8_linear_36_14418" x1="46.3996" y1="29.5021" x2="13.3143" y2="29.5021" gradientUnits="userSpaceOnUse">
<stop stop-color="#E0C500"/>
<stop offset="0.4087" stop-color="#E0A600"/>
<stop offset="0.7754" stop-color="#E09100"/>
<stop offset="1" stop-color="#E08900"/>
</linearGradient>
<linearGradient id="paint9_linear_36_14418" x1="46.3996" y1="29.502" x2="13.3143" y2="29.502" gradientUnits="userSpaceOnUse">
<stop stop-color="#FFE840"/>
<stop offset="0.4087" stop-color="#FFCE40"/>
<stop offset="0.7754" stop-color="#FFBC40"/>
<stop offset="1" stop-color="#FFB540"/>
</linearGradient>
<linearGradient id="paint10_linear_36_14418" x1="29.9443" y1="12.9296" x2="5.3749" y2="35.8195" gradientUnits="userSpaceOnUse">
<stop stop-color="#40B8FF"/>
<stop offset="0.00657445" stop-color="#40B9FF"/>
<stop offset="0.2601" stop-color="#40CEFF"/>
<stop offset="0.5122" stop-color="#40DDFF"/>
<stop offset="0.7604" stop-color="#40E7FF"/>
<stop offset="1" stop-color="#40EAFF"/>
</linearGradient>
<linearGradient id="paint11_linear_36_14418" x1="10.1146" y1="0.405335" x2="24.9924" y2="14.2661" gradientUnits="userSpaceOnUse">
<stop stop-color="#65B895"/>
<stop offset="0.0685" stop-color="#62BD95"/>
<stop offset="0.4762" stop-color="#50DB97"/>
<stop offset="0.8009" stop-color="#44ED98"/>
<stop offset="1" stop-color="#40F498"/>
</linearGradient>
<clipPath id="clip0_36_14418">
<rect width="185" height="59" fill="white"/>
</clipPath>
</defs>
</svg>
