<svg xmlns="http://www.w3.org/2000/svg" viewBox="0 0 20 18" class="shareLinkedIn" style="width: 20px; height: 18px; display: block; fill: currentcolor; flex-shrink: 0;"><path clip-rule="evenodd" d="m2.0769 4.15379c1.14644 0 2.07689-.93045 2.07689-2.07689 0-1.14645-.93045-2.0769-2.07689-2.0769-1.14645 0-2.0769.93045-2.0769 2.0769 0 1.14644.93045 2.07689 2.0769 2.07689zm-2.0769 13.84621v-12.46143h4.15379v12.46143zm6.92371-12.46143h3.83119v1.96336h.0554c.533-.95675 1.8373-1.96336 3.7827-1.96336 4.0444 0 4.7921 2.5172 4.7921 5.79173v6.6697h-3.9946v-5.9123c0-1.4095-.0291-3.22471-2.0769-3.22471-2.0796 0-2.3981 1.53551-2.3981 3.12231v6.0147h-3.99179z" fill-rule="evenodd"></path></svg>