<svg width="32" height="27" viewBox="0 0 32 27" fill="none" xmlns="http://www.w3.org/2000/svg">
<g clip-path="url(#clip0_38_119)">
<path d="M31.8768 3.86131C30.7412 4.37139 29.5168 4.71079 28.2381 4.86207C29.5477 4.07465 30.5499 2.82564 31.0271 1.34002C29.8025 2.06731 28.443 2.60066 27.0022 2.88576C25.8434 1.64839 24.196 0.880371 22.3728 0.880371C18.8715 0.880371 16.0363 3.72942 16.0363 7.2437C16.0363 7.74021 16.0904 8.22507 16.1984 8.69247C10.9299 8.42483 6.25812 5.89191 3.13137 2.03822C2.58867 2.97691 2.27386 4.07465 2.27386 5.23831C2.27386 7.44541 3.39015 9.3965 5.09162 10.535C4.05259 10.5039 3.07535 10.213 2.21786 9.74172V9.82124C2.21786 12.9069 4.40215 15.4825 7.30489 16.0643C6.77379 16.2098 6.21177 16.2893 5.63238 16.2893C5.22295 16.2893 4.82897 16.2467 4.43691 16.1748C5.24612 18.702 7.58686 20.5444 10.3583 20.5988C8.18556 22.3075 5.45664 23.3256 2.48244 23.3256C1.96872 23.3256 1.46851 23.2946 0.968307 23.2345C3.78027 25.0459 7.11176 26.0952 10.6904 26.0952C22.3496 26.0952 28.7307 16.3921 28.7307 7.97875C28.7307 7.69947 28.7249 7.42795 28.7133 7.1545C29.9513 6.26429 31.0251 5.14135 31.8748 3.86324L31.8768 3.86131Z" fill="black"/>
</g>
<defs>
<clipPath id="clip0_38_119">
<rect width="30.9084" height="25.2148" fill="white" transform="translate(0.968307 0.880371)"/>
</clipPath>
</defs>
</svg>
